<?xml version="1.0" encoding="utf-8"?>
<!-- Generator: Adobe Illustrator 23.0.1, SVG Export Plug-In . SVG Version: 6.00 Build 0)  -->
<svg version="1.1" id="Layer_1" xmlns="http://www.w3.org/2000/svg" xmlns:xlink="http://www.w3.org/1999/xlink" x="0px" y="0px"
	 viewBox="0 0 20 22" style="enable-background:new 0 0 20 22;" xml:space="preserve">
<path d="M6.67,8.65h2.67v2.67H6.67V8.65z M10.67,8.65h2.67v2.67h-2.67V8.65z M14.67,8.65h2.67v2.67h-2.67V8.65z M2.67,16.65h2.67
	v2.67H2.67V16.65z M6.67,16.65h2.67v2.67H6.67V16.65z M10.67,16.65h2.67v2.67h-2.67V16.65z M6.67,12.65h2.67v2.67H6.67V12.65z
	 M10.67,12.65h2.67v2.67h-2.67V12.65z M14.67,12.65h2.67v2.67h-2.67V12.65z M2.67,12.65h2.67v2.67H2.67V12.65z M17.33,0.65v1.33
	h-2.67V0.65H5.33v1.33H2.67V0.65H0v21.33h20V0.65H17.33z M18.67,20.65H1.33V5.98h17.33v14.67H18.67z"/>
</svg>
