<?xml version="1.0" encoding="utf-8"?>
<svg version="1.1" id="_x3C_Calque_x3E_" xmlns="http://www.w3.org/2000/svg" xmlns:xlink="http://www.w3.org/1999/xlink" x="0px"
	 y="0px" viewBox="0 0 143.18 105.14" style="enable-background:new 0 0 143.18 105.14;" xml:space="preserve">
<style type="text/css">
	.iata-logo{fill:#FFFFFF;}
</style>
<path class="iata-logo" d="M35.39,84.18l4.12-20.06h6.74l-4.12,20.06H35.39z M55.65,77.61h4.27l-1.11-7.35L55.65,77.61z M46.24,84.18
	l10.16-20.06h6.63l4.18,20.06h-6.23l-0.36-2.38h-6.63l-1.06,2.38H46.24z M73.4,84.18l2.31-15.09h-5.88l1.01-5.07h18.05l-1.01,5.07
	H82.3l-2.26,15.09H73.4z M95.98,77.61h4.27l-1.11-7.35L95.98,77.61z M86.58,84.18l10.15-20.06h6.64l4.18,20.06h-6.28l-0.3-2.38
	h-6.64l-1.05,2.38H86.58z M122.22,41.42H90.6c-1.16,5.64-5.18,10.33-13.17,13.59c0.9,2.67,4.02,5.15,7.24,5.15h17.15
	c2.62,0,4.67-2.15,5.53-3.85H89.89c-1.05-0.19-1.11-1.01-0.05-1.11h17.14c2.21,0,4.22-1.86,5.38-3.85H92.41
	c-1.01-0.15-1.01-0.97,0-1.12h20.12c2.01,0,3.86-2.29,4.62-3.84H95.07c-1.1-0.15-1.1-1.12,0-1.17h22.48
	C119.31,45.22,121.02,43.37,122.22,41.42z M20.96,41.42h31.62c1.16,5.64,5.18,10.33,13.18,13.59c-0.91,2.67-4.02,5.15-7.25,5.15
	H41.38c-2.62,0-4.68-2.15-5.53-3.85h17.44c1.06-0.19,1.11-1.01,0.05-1.11H36.19c-2.21,0-4.23-1.86-5.38-3.85h19.96
	c1.01-0.15,1.01-0.97,0-1.12H30.66c-2.01,0-3.87-2.29-4.62-3.84h22.07c1.11-0.15,1.11-1.12,0-1.17H25.63
	C23.87,45.22,22.16,43.37,20.96,41.42z M61.33,24.52c1.16,0.98,2.46,1.85,3.87,2.39c1.2-2.29,2.87-4.24,4.78-5.94
	C66.81,21.35,63.84,22.53,61.33,24.52z M55.75,35.72h7.05c0.15-2.83,0.76-5.31,1.91-7.84c-1.56-0.68-2.92-1.52-4.22-2.58
	C57.56,28.12,55.95,31.78,55.75,35.72z M71.04,29.29v6.43H64c0.05-2.54,0.64-5.12,1.76-7.45C67.41,28.85,69.23,29.24,71.04,29.29z
	 M81.85,24.52c-1.16,0.98-2.51,1.85-3.87,2.39c-1.26-2.34-2.82-4.2-4.78-5.94C76.36,21.35,79.33,22.53,81.85,24.52z M87.43,35.72
	h-7.04c-0.1-2.78-0.76-5.36-1.86-7.84c1.51-0.68,2.91-1.57,4.17-2.58C85.72,28.21,87.27,31.87,87.43,35.72z M72.19,29.29v6.43h6.99
	c0-2.59-0.65-5.07-1.76-7.45C75.77,28.85,73.95,29.24,72.19,29.29z M61.33,48.04c1.16-0.88,2.51-1.85,3.87-2.34
	c1.26,2.29,2.82,4.19,4.78,5.89C66.81,51.21,63.8,50.04,61.33,48.04z M55.75,36.84h7.05c0.15,2.83,0.76,5.31,1.91,7.89
	c-1.56,0.68-2.92,1.51-4.22,2.58C57.61,44.49,55.95,40.83,55.75,36.84z M71.04,43.27v-6.44H64c0.05,2.58,0.64,5.17,1.76,7.46
	C67.41,43.72,69.23,43.32,71.04,43.27z M81.85,48.04c-1.11-0.93-2.51-1.8-3.87-2.34c-1.26,2.29-2.82,4.19-4.78,5.89
	C76.36,51.21,79.33,50.04,81.85,48.04z M87.43,36.84h-7.04c-0.1,2.83-0.71,5.36-1.86,7.89c1.51,0.68,2.86,1.51,4.17,2.58
	C85.57,44.49,87.27,40.73,87.43,36.84z M72.19,43.27v-6.44h6.99c0,2.58-0.65,5.11-1.76,7.46C75.81,43.72,73.9,43.32,72.19,43.27z
	 M71.04,21.6c-1.91,1.51-3.62,3.56-4.73,5.7c1.51,0.49,3.11,0.88,4.73,0.88V21.6z M72.19,21.6c1.86,1.51,3.58,3.5,4.68,5.7
	c-1.51,0.53-3.12,0.88-4.68,0.88V21.6z M71.04,50.96c-1.91-1.46-3.62-3.5-4.73-5.69c1.51-0.54,3.11-0.83,4.73-0.83V50.96z
	 M72.19,51.02c1.86-1.51,3.58-3.55,4.68-5.75c-1.51-0.49-3.12-0.83-4.68-0.83V51.02z"/>
</svg>
