<?xml version="1.0" encoding="utf-8"?>
<!-- Generator: Adobe Illustrator 23.0.1, SVG Export Plug-In . SVG Version: 6.00 Build 0)  -->
<svg version="1.1" id="Layer_1" xmlns="http://www.w3.org/2000/svg" xmlns:xlink="http://www.w3.org/1999/xlink" x="0px" y="0px"
	 viewBox="0 0 20.87 20" style="enable-background:new 0 0 20.87 20;" xml:space="preserve">
<style type="text/css">
	.st0{fill:#FFFFFF;}
</style>
<path class="st0" d="M11.67,8.43V8.38c-0.01,0.02-0.02,0.03-0.03,0.05H11.67z M4.73,19.97H0.27V6.47h4.47L4.73,19.97L4.73,19.97z
	 M20.84,19.97h-4.47v-7.22c0-1.81-0.65-3.05-2.26-3.05c-1.23,0-1.97,0.83-2.29,1.64c-0.12,0.29-0.15,0.69-0.15,1.09v7.54H7.2
	c0,0,0.06-12.23,0-13.49h4.47v1.91c0.59-0.92,1.65-2.23,4.02-2.23c2.94,0,5.14,1.93,5.14,6.07v7.74H20.84z"/>
<path class="st0" d="M2.5,5.01H2.47c-1.49,0-2.46-1.11-2.46-2.5c0-1.42,0.99-2.5,2.51-2.5s2.46,1.08,2.49,2.5
	C5.01,3.9,4.05,5.01,2.5,5.01z"/>
</svg>
