<?xml version="1.0" encoding="utf-8"?>
<!-- Generator: Adobe Illustrator 23.0.1, SVG Export Plug-In . SVG Version: 6.00 Build 0)  -->
<svg version="1.1" id="Layer_1" xmlns="http://www.w3.org/2000/svg" xmlns:xlink="http://www.w3.org/1999/xlink" x="0px" y="0px"
	 viewBox="0 0 24 20" style="enable-background:new 0 0 24 20;" xml:space="preserve">
<style type="text/css">
	.st0{fill:#FFFFFF;}
</style>
<path id="_x31_28" class="st0" d="M24,2.42c-0.87,0.38-1.8,0.64-2.78,0.76c-0.01-0.02-0.01-0.04-0.02-0.05
	c1.03-0.61,1.83-1.58,2.23-2.74c-0.3,0.18-1.75,1.01-3.16,1.27C19.35,0.64,18.02,0,16.55,0c-3.12,0-5.03,2.57-5.03,5.07
	c0,0.2,0.09,1,0.11,1.05C7.45,6.03,3.74,4,1.35,0.89c-1.71,3.14,0.08,5.86,1.31,6.83C1.95,7.71,1.27,7.55,0.65,7.28
	c0.13,2.41,1.86,4.4,4.15,4.89c-0.91,0.26-2.01,0.06-2.43-0.05c0.67,2.02,2.52,3.5,4.73,3.6c-3.4,2.5-7.04,2.25-7.1,2.25
	c2.14,1.29,4.64,2.05,7.32,2.03c9.8-0.06,14.84-8.83,14.24-15.12C22.63,4.38,23.5,3.5,24,2.42z"/>
</svg>
